<?xml version="1.0" encoding="UTF-8"?>
<svg width="32" height="32" viewBox="0 0 32 32" version="1.1" xmlns="http://www.w3.org/2000/svg">
    <defs>
        <linearGradient id="logoGradient" x1="0%" y1="0%" x2="100%" y2="100%">
            <stop offset="0%" style="stop-color:#6F42C1"/>
            <stop offset="100%" style="stop-color:#A020F0"/>
        </linearGradient>
    </defs>
    <path fill="url(#logoGradient)" d="M25.333 9.253c-.44-.467-1.03-.697-1.769-.697h-5c-.737 0-1.329.232-1.773.697-.444.464-.667 1.04-.667 1.728v1.783c0 .688.223 1.265.667 1.729.444.465 1.036.697 1.773.697h3v3.565c0 .737-.223 1.329-.667 1.773-.444.445-1.036.667-1.773.667H16.333v-2h3.231c.262 0 .394-.13.394-.394v-4.508c0-.263-.132-.394-.394-.394h-3.667c-.737 0-1.329.222-1.773.667-.445.444-.667 1.036-.667 1.773v6.729c0 .737.222 1.329.667 1.773.444.445 1.036.667 1.773.667h5c.737 0 1.328-.222 1.769-.667.444-.444.667-1.036.667-1.773v-10.16c0-.688-.223-1.264-.667-1.728zM10.564 11.92v10.16c0 .737-.222 1.329-.667 1.773-.444.445-1.035.667-1.773.667h-1.667c-.737 0-1.328-.222-1.769-.667-.445-.444-.667-1.036-.667-1.773v-6.729c0-.737.222-1.329.667-1.773.444-.445 1.035-.667 1.769-.667h2.773v2H6.897c-.262 0-.394.131-.394.394v4.508c0 .264.132.394.394.394h.827c.263 0 .395-.13.395-.394V11.92h2.445z"/>
</svg>